<svg viewBox="0 0 512 512" xmlns="http://www.w3.org/2000/svg"><path d="m75 512h167v-182h-60v-60h60v-75a75.08 75.08 0 0 1 75-75h75v60h-60a30 30 0 0 0 -30 30v60h87.29l-10 60h-77.29v182h135a75.08 75.08 0 0 0 75-75v-362a75.08 75.08 0 0 0 -75-75h-362a75.08 75.08 0 0 0 -75 75v362a75.08 75.08 0 0 0 75 75zm-45-437a45.05 45.05 0 0 1 45-45h362a45.05 45.05 0 0 1 45 45v362a45.05 45.05 0 0 1 -45 45h-105v-122h72.71l20-120h-92.71v-30h90v-120h-105a105.12 105.12 0 0 0 -105 105v45h-60v120h60v122h-137a45.05 45.05 0 0 1 -45-45z" fill="#fff"/></svg>