<svg id="Calque_1" data-name="Calque 1" xmlns="http://www.w3.org/2000/svg" viewBox="0 0 500 500"><defs><style>.cls-1{fill:#fff;}</style></defs><title>logoTim</title><path class="cls-1" d="M50,20A30.15,30.15,0,0,0,20,50V350a30.15,30.15,0,0,0,30,30H190v20H99.06a10,10,0,0,0-6.87,3.75l-50,60A10,10,0,0,0,50,480H450a10,10,0,0,0,7.81-16.25l-50-60A10,10,0,0,0,400,400H310V380H450a30.15,30.15,0,0,0,30-30V50a30.15,30.15,0,0,0-30-30Zm0,20H450a10,10,0,0,1,10,10V350a10,10,0,0,1-10,10H50a10,10,0,0,1-10-10V50A10,10,0,0,1,50,40ZM60,60V340H440V60ZM80,80H420V320H80Zm112.81,32.81-80,80L105.94,200l6.87,7.19,80,80,14.38-14.38L134.38,200l72.81-72.81Zm114.38,0-14.38,14.38L365.62,200l-72.81,72.81,14.38,14.38,80-80,6.87-7.19-6.87-7.19ZM210,380h80v40H210ZM104.69,420H190v20H310V420h85.31l33.44,40H71.25Z"/></svg>