<svg enable-background="new 0 0 511.999 511.999" viewBox="0 0 511.999 511.999" xmlns="http://www.w3.org/2000/svg"><path d="m425.629 305.585c-.208-.07-.418-.135-.63-.195l-56.049-15.982-39.785-37.952v-10.202c19.039-19.017 31.034-45.285 31.034-74.256v-62c.001-57.74-46.763-104.998-104.799-104.998-57.897 0-104.999 47.103-104.999 104.999v62c0 28.971 11.995 55.239 31.034 74.256v10.202l-39.531 37.899-54.997 16.062c-.181.053-.36.109-.538.168-24.143 8.047-38.275 33.594-32.331 58.293l26.518 135.989c1.396 7.162 7.674 12.132 14.706 12.132.417 0 .837-.025 1.258-.061.379.03.757.059 1.143.059h317.62c7.12 0 13.26-5.006 14.693-11.98l27.964-136.058c5.997-24.725-8.14-50.318-32.311-58.375zm-84.661-1.481-42.899 64.35-23.386-23.386 42.432-63.948zm-85.569-274.104c24.494 0 46.28 11.805 59.976 30.021-14.071 18.679-36.314 29.979-59.976 29.979h-73.491c6.97-34.192 37.272-60 73.491-60zm-75.199 136.999v-47h75.2c27.739 0 54.083-11.091 73.482-30.047.994 4.863 1.518 9.895 1.518 15.047v62c0 41.355-33.645 75-75 75-41.356 0-75.2-33.645-75.2-75zm13.485 114.121 42.433 63.948-23.386 23.386-42.899-64.35zm46.715 200.877h-132.764c-.112-.572-24.248-124.413-24.392-124.978-2.409-9.637 3.023-19.645 12.383-22.896l48.684-14.218 53.609 80.414c5.24 7.863 16.387 8.988 23.087 2.286l19.394-19.394v98.786zm-20.978-216.35c11.228 4.108 23.346 6.351 35.978 6.351s24.75-2.243 35.978-6.351l-35.978 54.221zm209.19 91.99-25.559 124.36h-132.854v-98.786l19.594 19.394c6.693 6.696 17.842 5.583 23.087-2.286l53.611-80.417 49.92 14.235c8.196 2.867 14.736 11.288 12.201 23.5z"/><path d="m375.399 421.998h-30c-8.284 0-15 6.716-15 15s6.716 15 15 15h30c8.284 0 15-6.716 15-15s-6.715-15-15-15z"/></svg>