<svg viewBox="0 0 512 512" xmlns="http://www.w3.org/2000/svg"><path d="m512 103c-32.21 1.49-31.5 1.37-35.14 1.67l19.07-54.47s-59.54 21.86-74.63 25.8c-39.64-35.63-98.57-37.2-140.69-11.31-34.5 21.21-53 57.62-46.84 100.19-67.13-9.32-123.7-41.14-168.36-94.79l-14.12-17-10.56 19.4c-13.34 24.51-17.73 52.51-12.48 78.85a113.74 113.74 0 0 0 11 30.78l-12.12-4.69-1.43 20.24c-1.46 20.57 5.39 44.58 18.32 64.22a113.57 113.57 0 0 0 14.27 17.59l-6.27-1 7.64 23.2c10 30.48 30.91 54.07 58 67.17-27 11.48-48.88 18.8-84.78 30.61l-32.88 10.83 30.34 16.59c11.56 6.32 52.43 27.44 92.82 33.78 89.76 14.08 190.84 2.61 258.84-58.66 57.31-51.62 76.11-125 72.2-201.44-.59-11.56 2.58-22.6 8.93-31.08 12.73-16.96 48.79-66.4 48.87-66.48zm-72.83 48.56c-10.54 14.06-15.81 32-14.87 50.57 3.94 77.07-17 136.84-62.33 177.63-52.92 47.66-138.27 66.37-234.17 51.33-17.37-2.73-35.32-8.82-50.17-14.91 30.1-10.36 53.34-19.59 90.87-37.35l52.4-24.83-57.85-3.7c-27.71-1.77-50.78-15.2-65-37a103.08 103.08 0 0 0 22-3.67l55.17-15.37-55.64-13.62c-27-6.62-42.44-22.8-50.61-35.2a85 85 0 0 1 -11-24.21c5.58 1.5 12.08 2.57 22.57 3.6l51.5 5.1-40.8-31.83c-29.4-22.93-41.18-57.38-32.54-90.5 91.75 95.17 199.47 88 210.32 90.53-2.39-23.18-2.45-23.24-3.08-25.44-13.89-49.09 16.55-74 30.27-82.46 28.79-17.65 74.28-20.3 105.79 8.77a26.86 26.86 0 0 0 24.63 6.59 210.13 210.13 0 0 0 20.3-6.17l-12.93 36.9h16.52z" fill="#fff"/></svg>